<?xml version="1.0" encoding="UTF-8" standalone="no"?>
<!DOCTYPE svg PUBLIC "-//W3C//DTD SVG 1.1//EN" "http://www.w3.org/Graphics/SVG/1.1/DTD/svg11.dtd">
<svg width="100%" height="100%" viewBox="0 0 355 355" version="1.1" xmlns="http://www.w3.org/2000/svg" xmlns:xlink="http://www.w3.org/1999/xlink" xml:space="preserve" xmlns:serif="http://www.serif.com/" style="fill-rule:evenodd;clip-rule:evenodd;stroke-linejoin:round;stroke-miterlimit:2;">
    <g transform="matrix(1,0,0,1,-0.509018,0.0427372)">
        <g transform="matrix(0.866025,0.5,-0.5,0.866025,-697.732,-1693.66)">
            <g>
                <g transform="matrix(1,4.31066e-18,4.2455e-18,1,0,-4.487)">
                    <path d="M1521,1190.52C1518.7,1190.52 1516.83,1188.65 1516.83,1186.35C1516.83,1184.05 1518.7,1182.18 1521,1182.18L1580,1182.18C1582.3,1182.18 1584.17,1184.05 1584.17,1186.35C1584.17,1188.65 1582.3,1190.52 1580,1190.52L1521,1190.52Z" style="fill:white;"/>
                </g>
                <g transform="matrix(0.965926,0.258819,-0.258819,0.965926,364.754,-402.368)">
                    <path d="M1521,1190.52C1518.7,1190.52 1516.83,1188.65 1516.83,1186.35C1516.83,1184.05 1518.7,1182.18 1521,1182.18L1580,1182.18C1582.3,1182.18 1584.17,1184.05 1584.17,1186.35C1584.17,1188.65 1582.3,1190.52 1580,1190.52L1521,1190.52Z" style="fill:white;"/>
                </g>
                <g transform="matrix(0.866025,0.5,-0.5,0.866025,820.058,-692.286)">
                    <path d="M1521,1190.52C1518.7,1190.52 1516.83,1188.65 1516.83,1186.35C1516.83,1184.05 1518.7,1182.18 1521,1182.18L1580,1182.18C1582.3,1182.18 1584.17,1184.05 1584.17,1186.35C1584.17,1188.65 1582.3,1190.52 1580,1190.52L1521,1190.52Z" style="fill:white;"/>
                </g>
                <g transform="matrix(0.707107,0.707107,-0.707107,0.707107,1334.88,-854.484)">
                    <path d="M1521,1190.52C1518.7,1190.52 1516.83,1188.65 1516.83,1186.35C1516.83,1184.05 1518.7,1182.18 1521,1182.18L1580,1182.18C1582.3,1182.18 1584.17,1184.05 1584.17,1186.35C1584.17,1188.65 1582.3,1190.52 1580,1190.52L1521,1190.52Z" style="fill:white;"/>
                </g>
                <g transform="matrix(0.5,0.866025,-0.866025,0.5,1874.15,-877.908)">
                    <path d="M1521,1190.52C1518.7,1190.52 1516.83,1188.65 1516.83,1186.35C1516.83,1184.05 1518.7,1182.18 1521,1182.18L1580,1182.18C1582.3,1182.18 1584.17,1184.05 1584.17,1186.35C1584.17,1188.65 1582.3,1190.52 1580,1190.52L1521,1190.52Z" style="fill:white;"/>
                </g>
                <g transform="matrix(0.258819,0.965926,-0.965926,0.258819,2401.1,-760.963)">
                    <path d="M1521,1190.52C1518.7,1190.52 1516.83,1188.65 1516.83,1186.35C1516.83,1184.05 1518.7,1182.18 1521,1182.18L1580,1182.18C1582.3,1182.18 1584.17,1184.05 1584.17,1186.35C1584.17,1188.65 1582.3,1190.52 1580,1190.52L1521,1190.52Z" style="fill:white;"/>
                </g>
                <g transform="matrix(0.5,0.866025,-0.866025,0.5,1874.15,-877.908)">
                    <path d="M1521,1190.52C1518.7,1190.52 1516.83,1188.65 1516.83,1186.35C1516.83,1184.05 1518.7,1182.18 1521,1182.18L1580,1182.18C1582.3,1182.18 1584.17,1184.05 1584.17,1186.35C1584.17,1188.65 1582.3,1190.52 1580,1190.52L1521,1190.52Z" style="fill:white;"/>
                </g>
                <g transform="matrix(-0.258819,0.965926,-0.965926,-0.258819,3278.16,-146.281)">
                    <path d="M1521,1190.52C1518.7,1190.52 1516.83,1188.65 1516.83,1186.35C1516.83,1184.05 1518.7,1182.18 1521,1182.18L1580,1182.18C1582.3,1182.18 1584.17,1184.05 1584.17,1186.35C1584.17,1188.65 1582.3,1190.52 1580,1190.52L1521,1190.52Z" style="fill:white;"/>
                </g>
                <g transform="matrix(-0.5,0.866025,-0.866025,-0.5,3568.07,309.023)">
                    <path d="M1521,1190.52C1518.7,1190.52 1516.83,1188.65 1516.83,1186.35C1516.83,1184.05 1518.7,1182.18 1521,1182.18L1580,1182.18C1582.3,1182.18 1584.17,1184.05 1584.17,1186.35C1584.17,1188.65 1582.3,1190.52 1580,1190.52L1521,1190.52Z" style="fill:white;"/>
                </g>
                <g transform="matrix(-0.707107,0.707107,-0.707107,-0.707107,3730.27,823.85)">
                    <path d="M1521,1190.52C1518.7,1190.52 1516.83,1188.65 1516.83,1186.35C1516.83,1184.05 1518.7,1182.18 1521,1182.18L1580,1182.18C1582.3,1182.18 1584.17,1184.05 1584.17,1186.35C1584.17,1188.65 1582.3,1190.52 1580,1190.52L1521,1190.52Z" style="fill:white;"/>
                </g>
                <g transform="matrix(-0.866025,0.5,-0.5,-0.866025,3753.7,1363.11)">
                    <path d="M1521,1190.52C1518.7,1190.52 1516.83,1188.65 1516.83,1186.35C1516.83,1184.05 1518.7,1182.18 1521,1182.18L1580,1182.18C1582.3,1182.18 1584.17,1184.05 1584.17,1186.35C1584.17,1188.65 1582.3,1190.52 1580,1190.52L1521,1190.52Z" style="fill:white;"/>
                </g>
                <g transform="matrix(-1,5.50801e-16,-5.29126e-16,-1,3387.41,2368.79)">
                    <path d="M1521,1190.52C1518.7,1190.52 1516.83,1188.65 1516.83,1186.35C1516.83,1184.05 1518.7,1182.18 1521,1182.18L1580,1182.18C1582.3,1182.18 1584.17,1184.05 1584.17,1186.35C1584.17,1188.65 1582.3,1190.52 1580,1190.52L1521,1190.52Z" style="fill:white;"/>
                </g>
                <g transform="matrix(-0.965926,0.258819,-0.258819,-0.965926,3636.75,1890.07)">
                    <path d="M1521,1190.52C1518.7,1190.52 1516.83,1188.65 1516.83,1186.35C1516.83,1184.05 1518.7,1182.18 1521,1182.18L1580,1182.18C1582.3,1182.18 1584.17,1184.05 1584.17,1186.35C1584.17,1188.65 1582.3,1190.52 1580,1190.52L1521,1190.52Z" style="fill:white;"/>
                </g>
                <g transform="matrix(-0.965926,-0.258819,0.258819,-0.965926,3022.21,2767.12)">
                    <path d="M1521,1190.52C1518.7,1190.52 1516.83,1188.65 1516.83,1186.35C1516.83,1184.05 1518.7,1182.18 1521,1182.18L1580,1182.18C1582.3,1182.18 1584.17,1184.05 1584.17,1186.35C1584.17,1188.65 1582.3,1190.52 1580,1190.52L1521,1190.52Z" style="fill:white;"/>
                </g>
                <g transform="matrix(-0.866025,-0.5,0.5,-0.866025,2566.9,3057.04)">
                    <path d="M1521,1190.52C1518.7,1190.52 1516.83,1188.65 1516.83,1186.35C1516.83,1184.05 1518.7,1182.18 1521,1182.18L1580,1182.18C1582.3,1182.18 1584.17,1184.05 1584.17,1186.35C1584.17,1188.65 1582.3,1190.52 1580,1190.52L1521,1190.52Z" style="fill:white;"/>
                </g>
                <g transform="matrix(-0.707107,-0.707107,0.707107,-0.707107,2052.07,3219.24)">
                    <path d="M1521,1190.52C1518.7,1190.52 1516.83,1188.65 1516.83,1186.35C1516.83,1184.05 1518.7,1182.18 1521,1182.18L1580,1182.18C1582.3,1182.18 1584.17,1184.05 1584.17,1186.35C1584.17,1188.65 1582.3,1190.52 1580,1190.52L1521,1190.52Z" style="fill:white;"/>
                </g>
                <g transform="matrix(-0.5,-0.866025,0.866025,-0.5,1512.81,3242.66)">
                    <path d="M1521,1190.52C1518.7,1190.52 1516.83,1188.65 1516.83,1186.35C1516.83,1184.05 1518.7,1182.18 1521,1182.18L1580,1182.18C1582.3,1182.18 1584.17,1184.05 1584.17,1186.35C1584.17,1188.65 1582.3,1190.52 1580,1190.52L1521,1190.52Z" style="fill:white;"/>
                </g>
                <g transform="matrix(-6.25879e-16,-1,1,-6.0318e-16,507.13,2876.37)">
                    <path d="M1521,1190.52C1518.7,1190.52 1516.83,1188.65 1516.83,1186.35C1516.83,1184.05 1518.7,1182.18 1521,1182.18L1580,1182.18C1582.3,1182.18 1584.17,1184.05 1584.17,1186.35C1584.17,1188.65 1582.3,1190.52 1580,1190.52L1521,1190.52Z" style="fill:white;"/>
                </g>
                <g transform="matrix(-0.258819,-0.965926,0.965926,-0.258819,985.858,3125.72)">
                    <path d="M1521,1190.52C1518.7,1190.52 1516.83,1188.65 1516.83,1186.35C1516.83,1184.05 1518.7,1182.18 1521,1182.18L1580,1182.18C1582.3,1182.18 1584.17,1184.05 1584.17,1186.35C1584.17,1188.65 1582.3,1190.52 1580,1190.52L1521,1190.52Z" style="fill:white;"/>
                </g>
                <g transform="matrix(-3.90934e-16,-1,1,-4.25901e-16,506.583,2875.95)">
                    <path d="M1521,1190.52C1518.7,1190.52 1516.83,1188.65 1516.83,1186.35C1516.83,1184.05 1518.7,1182.18 1521,1182.18L1580,1182.18C1582.3,1182.18 1584.17,1184.05 1584.17,1186.35C1584.17,1188.65 1582.3,1190.52 1580,1190.52L1521,1190.52Z" style="fill:white;"/>
                </g>
                <g transform="matrix(0.258819,-0.965926,0.965926,0.258819,108.702,2511.2)">
                    <path d="M1521,1190.52C1518.7,1190.52 1516.83,1188.65 1516.83,1186.35C1516.83,1184.05 1518.7,1182.18 1521,1182.18L1580,1182.18C1582.3,1182.18 1584.17,1184.05 1584.17,1186.35C1584.17,1188.65 1582.3,1190.52 1580,1190.52L1521,1190.52Z" style="fill:white;"/>
                </g>
                <g transform="matrix(0.5,-0.866025,0.866025,0.5,-181.216,2055.89)">
                    <path d="M1521,1190.52C1518.7,1190.52 1516.83,1188.65 1516.83,1186.35C1516.83,1184.05 1518.7,1182.18 1521,1182.18L1580,1182.18C1582.3,1182.18 1584.17,1184.05 1584.17,1186.35C1584.17,1188.65 1582.3,1190.52 1580,1190.52L1521,1190.52Z" style="fill:white;"/>
                </g>
                <g transform="matrix(0.707107,-0.707107,0.707107,0.707107,-343.414,1541.07)">
                    <path d="M1521,1190.52C1518.7,1190.52 1516.83,1188.65 1516.83,1186.35C1516.83,1184.05 1518.7,1182.18 1521,1182.18L1580,1182.18C1582.3,1182.18 1584.17,1184.05 1584.17,1186.35C1584.17,1188.65 1582.3,1190.52 1580,1190.52L1521,1190.52Z" style="fill:white;"/>
                </g>
                <g transform="matrix(0.965926,-0.258819,0.258819,0.965926,-249.893,474.85)">
                    <path d="M1521,1190.52C1518.7,1190.52 1516.83,1188.65 1516.83,1186.35C1516.83,1184.05 1518.7,1182.18 1521,1182.18L1580,1182.18C1582.3,1182.18 1584.17,1184.05 1584.17,1186.35C1584.17,1188.65 1582.3,1190.52 1580,1190.52L1521,1190.52Z" style="fill:white;"/>
                </g>
                <g transform="matrix(0.866025,-0.5,0.5,0.866025,-366.839,1001.8)">
                    <path d="M1521,1190.52C1518.7,1190.52 1516.83,1188.65 1516.83,1186.35C1516.83,1184.05 1518.7,1182.18 1521,1182.18L1580,1182.18C1582.3,1182.18 1584.17,1184.05 1584.17,1186.35C1584.17,1188.65 1582.3,1190.52 1580,1190.52L1521,1190.52Z" style="fill:white;"/>
                </g>
                <g transform="matrix(2.80498e-16,1,-1,3.01001e-16,2879.83,-511.617)">
                    <path d="M1521,1190.52C1518.7,1190.52 1516.83,1188.65 1516.83,1186.35C1516.83,1184.05 1518.7,1182.18 1521,1182.18L1580,1182.18C1582.3,1182.18 1584.17,1184.05 1584.17,1186.35C1584.17,1188.65 1582.3,1190.52 1580,1190.52L1521,1190.52Z" style="fill:white;"/>
                </g>
                <g transform="matrix(1.04637,-0.325793,0.325793,1.04637,-478.385,501.197)">
                    <path d="M1704.51,1106.29C1705.01,1105.08 1706.19,1104.29 1707.5,1104.29C1708.81,1104.29 1709.99,1105.08 1710.49,1106.29C1715.93,1119.55 1726.88,1146.25 1726.88,1146.25C1726.88,1146.25 1754.59,1138.16 1768.35,1134.15C1769.6,1133.78 1770.96,1134.21 1771.78,1135.24C1772.6,1136.27 1772.71,1137.68 1772.08,1138.83C1765.1,1151.35 1751.06,1176.56 1751.06,1176.56C1751.06,1176.56 1774.65,1193.18 1786.36,1201.43C1787.44,1202.19 1787.95,1203.52 1787.65,1204.8C1787.36,1206.07 1786.33,1207.05 1785.03,1207.26C1770.9,1209.62 1742.43,1214.36 1742.43,1214.36C1742.43,1214.36 1744.14,1243.16 1745,1257.47C1745.07,1258.78 1744.35,1260 1743.17,1260.57C1741.99,1261.14 1740.58,1260.94 1739.61,1260.06C1728.95,1250.48 1707.5,1231.18 1707.5,1231.18C1707.5,1231.18 1686.05,1250.48 1675.39,1260.06C1674.42,1260.94 1673.01,1261.14 1671.83,1260.57C1670.65,1260 1669.93,1258.78 1670,1257.47C1670.86,1243.16 1672.57,1214.36 1672.57,1214.36C1672.57,1214.36 1644.1,1209.62 1629.97,1207.26C1628.67,1207.05 1627.64,1206.07 1627.35,1204.8C1627.05,1203.52 1627.56,1202.19 1628.64,1201.43C1640.35,1193.18 1663.94,1176.56 1663.94,1176.56C1663.94,1176.56 1649.9,1151.35 1642.92,1138.83C1642.29,1137.68 1642.4,1136.27 1643.22,1135.24C1644.04,1134.21 1645.4,1133.78 1646.65,1134.15C1660.41,1138.16 1688.12,1146.25 1688.12,1146.25C1688.12,1146.25 1699.07,1119.55 1704.51,1106.29Z" style="fill:white;"/>
                </g>
            </g>
        </g>
    </g>
</svg>
